<?xml version="1.0" encoding="utf-8"?>
<!-- Generator: Adobe Illustrator 27.0.0, SVG Export Plug-In . SVG Version: 6.00 Build 0)  -->
<svg version="1.1" id="Layer_1" xmlns="http://www.w3.org/2000/svg" xmlns:xlink="http://www.w3.org/1999/xlink" x="0px" y="0px"
	 viewBox="0 0 16 16" style="enable-background:new 0 0 16 16;" xml:space="preserve">
<style type="text/css">
	.st0{fill:#FF8906;}
</style>
<g>
	<path class="st0" d="M11.26,10.13c-0.13,0.03-0.26,0.06-0.4,0.09l-0.01,0c-0.02,0-0.04,0.01-0.06,0.01c-0.02,0-0.03,0-0.05,0.01
		c-0.18,0.02-0.36,0.04-0.55,0.04H8.62l0.17,0.2l2.38,2.75h2.71L11.26,10.13z"/>
	<path class="st0" d="M10.65,9.54c0.01,0,0.03,0,0.04,0c0.02,0,0.04-0.01,0.06-0.01c0.72-0.12,1.36-0.46,1.86-0.96
		c0.62-0.62,1-1.47,1-2.42c0-1.89-1.53-3.42-3.42-3.42H2.12L3.4,4.22L3.99,4.9l1.47,1.71V4.9h4.82c0.69,0,1.25,0.56,1.25,1.25
		c0,0.35-0.14,0.66-0.37,0.89c-0.23,0.23-0.54,0.37-0.89,0.37H3.4v5.85h2.08V9.58h4.71C10.34,9.58,10.5,9.56,10.65,9.54z"/>
</g>
</svg>
